<?xml version="1.0" encoding="UTF-8" standalone="no"?> <svg height="568pt" viewBox="-53 -18 568 568.00011" width="568pt" xmlns="http://www.w3.org/2000/svg"><path d="m380.167969 532.5c6.210937 0 11.25-5.035156 11.25-11.25v-100h57.5c6.210937 0 11.25-5.035156 11.25-11.25 0-6.210938-5.039063-11.25-11.25-11.25h-202.5v-163.75h22.5v22.5c0 6.214844 5.039062 11.25 11.25 11.25 6.210937 0 11.25-5.035156 11.25-11.25v-22.5h73.757812c11.425781 0 22.179688-5.386719 29.023438-14.53125 6.847656-9.148438 8.976562-20.984375 5.753906-31.949219-.074219-.246093-.15625-.496093-.25-.734375l-60.160156-162.175781c-4.734375-15.179687-18.757813-25.546875-34.660157-25.609375h-148.992187c-16.675781-.0546875-31.222656 11.324219-35.1875 27.519531l-50.625 162.148438c-.082031.257812-.152344.519531-.210937.777343-2.539063 10.78125-.007813 22.128907 6.871093 30.808594 6.875 8.683594 17.339844 13.746094 28.414063 13.746094h118.765625v163.75h-215c-6.210938 0-11.25 5.039062-11.25 11.25 0 6.214844 5.039062 11.25 11.25 11.25h70v100c0 6.214844 5.039062 11.25 11.25 11.25 6.210937 0 11.25-5.035156 11.25-11.25v-37.5h267.5v37.5c0 6.214844 5.039062 11.25 11.25 11.25zm-285.792969-325.210938c-2.542969-3.195312-3.53125-7.355468-2.679688-11.351562l50.59375-162.058594c.085938-.261718.152344-.519531.214844-.78125 1.445313-6.222656 7-10.617187 13.386719-10.597656h148.996094c6.09375.023438 11.453125 4.039062 13.191406 9.875.078125.253906.160156.496094.253906.742188l60.136719 162.078124c1.105469 4.132813.226562 8.539063-2.378906 11.933594-2.601563 3.390625-6.640625 5.375-10.914063 5.371094h-260.023437c-4.203125.011719-8.179688-1.910156-10.777344-5.210938zm7.042969 252.710938v-38.75h267.5v40h-267.5zm0 0"/></svg>