<?xml version='1.0' encoding='iso-8859-1'?>
<svg version="1.1" xmlns="http://www.w3.org/2000/svg" viewBox="0 0 137.144 137.144" xmlns:xlink="http://www.w3.org/1999/xlink" enable-background="new 0 0 137.144 137.144">
  <g>
    <g>
      <path d="M89.144,102.859h6.857V89.144h-6.857V102.859z M75.43,89.144H61.716v20.571h-6.857v6.857h27.429v-6.857H75.43V89.144z     M48.001,20.572l-20.572,48h82.286l-20.571-48H48.001z M109.715,0H27.429C12.28,0,0,12.28,0,27.429v82.286    c0,15.149,12.28,27.429,27.429,27.429h82.286c15.148,0,27.429-12.28,27.429-27.429V27.429C137.144,12.28,124.864,0,109.715,0z     M123.43,102.859c0,11.361-9.21,20.571-20.571,20.571H34.286c-11.361,0-20.572-9.21-20.572-20.571V34.286    c0-11.361,9.21-20.572,20.572-20.572h68.572c11.361,0,20.571,9.21,20.571,20.572V102.859z M27.43,82.287h82.286V75.43H27.43    V82.287z"/>
    </g>
  </g>
</svg>
